<?xml version="1.0" encoding="UTF-8"?>
<svg xmlns="http://www.w3.org/2000/svg" viewBox="0 0 260 320" role="img" aria-label="Prashant Jewellers Logo">
  <defs>
    <linearGradient id="goldGradient" x1="0.2" y1="0" x2="0.8" y2="1">
      <stop offset="0%" stop-color="#fdf6e8" />
      <stop offset="28%" stop-color="#f3d689" />
      <stop offset="55%" stop-color="#d2a14d" />
      <stop offset="100%" stop-color="#af7b31" />
    </linearGradient>
    <filter id="softGlow" x="-25%" y="-25%" width="150%" height="150%">
      <feGaussianBlur stdDeviation="8" result="blur" />
      <feMerge>
        <feMergeNode in="blur" />
        <feMergeNode in="SourceGraphic" />
      </feMerge>
    </filter>
  </defs>

  <path
    d="M76 24 C56 20 36 54 38 88 C42 130 58 190 96 206 C132 222 186 208 200 154 C210 110 202 68 172 48 C156 36 126 28 108 40 C96 50 100 76 108 86 C118 98 144 102 154 120 C162 138 156 164 138 180 C118 200 96 226 84 246 C68 276 44 290 30 288 C18 286 16 268 28 254 C46 232 68 210 82 180 L86 120 C88 90 92 52 76 24 Z"
    fill="url(#goldGradient)"
    filter="url(#softGlow)"
    stroke="rgba(255,255,255,0.75)"
    stroke-width="4"
    stroke-linecap="round"
    stroke-linejoin="round"
  />
</svg>
